<svg width="1728" height="1198" viewBox="0 0 1728 1198" fill="none" xmlns="http://www.w3.org/2000/svg">
<g filter="url(#filter0_b_2353_10169)">
<rect y="76" width="1728" height="1055" fill="#15192A" fill-opacity="0.3"/>
</g>
<path d="M381.975 384.095C452.07 513.557 337.276 675.092 271.118 739.677C58.6203 954.724 -172.451 494.605 24.8705 349.876C222.192 205.148 -283.008 122.929 -157.532 38.6272C-32.0553 -45.6744 263.331 -6.26733 365.49 75.7049C467.65 157.677 294.357 222.267 381.975 384.095Z" stroke="#4A48E0" stroke-opacity="0.5" stroke-width="0.5"/>
<path d="M106.17 460.914C143.036 529.136 82.5948 614.293 47.7662 648.344C-64.1028 761.722 -185.626 519.253 -81.757 442.94C22.1126 366.627 -243.744 323.379 -177.694 278.926C-111.645 234.473 43.8005 255.193 97.5492 298.379C151.298 341.566 60.0882 375.637 106.17 460.914Z" stroke="#4A48E0" stroke-opacity="0.5" stroke-width="0.5"/>
<path d="M368.772 387.896C437.334 514.35 325.14 672.085 260.472 735.146C52.7663 945.121 -173.26 495.698 19.6252 354.396C212.51 213.094 -281.44 132.681 -158.782 50.3771C-36.1252 -31.9264 252.681 6.62726 352.581 86.7077C452.481 166.788 283.07 229.83 368.772 387.896Z" stroke="#4A48E0" stroke-opacity="0.5" stroke-width="0.5"/>
<path d="M355.621 391.626C422.543 515.203 312.958 669.387 249.8 731.033C46.9401 936.293 -173.676 497.091 14.6978 358.951C203.072 220.812 -279.237 142.314 -159.45 61.8507C-39.6625 -18.6127 242.339 19.0124 339.872 97.2603C437.404 175.508 271.968 237.155 355.621 391.626Z" stroke="#4A48E0" stroke-opacity="0.5" stroke-width="0.5"/>
<path d="M342.478 395.127C407.852 515.769 300.84 666.273 239.163 726.444C41.0584 926.798 -174.456 498.028 9.50752 363.196C193.471 228.364 -277.591 151.686 -160.607 73.1502C-43.6243 -5.38567 231.801 31.3723 327.066 107.767C422.33 184.163 260.761 244.325 342.478 395.127Z" stroke="#4A48E0" stroke-opacity="0.5" stroke-width="0.5"/>
<path d="M329.327 398.856C393.062 516.622 288.659 663.575 228.491 722.331C35.2327 917.97 -174.871 499.42 4.58076 367.751C184.033 236.081 -275.387 161.319 -161.274 84.6236C-47.1611 7.9278 221.459 43.7572 314.356 118.32C407.254 192.882 249.659 251.65 329.327 398.856Z" stroke="#4A48E0" stroke-opacity="0.5" stroke-width="0.5"/>
<path d="M316.187 402.361C378.374 517.192 276.544 660.464 217.856 717.746C29.3537 908.478 -175.649 500.362 -0.606997 371.999C174.435 243.637 -273.739 170.695 -162.429 95.9267C-51.1203 21.1584 210.923 56.1207 301.553 128.83C392.182 201.54 238.455 258.823 316.187 402.361Z" stroke="#4A48E0" stroke-opacity="0.5" stroke-width="0.5"/>
<path d="M303.036 406.09C363.583 518.044 264.362 657.766 207.184 713.633C23.5274 899.65 -176.065 501.754 -5.53428 376.554C164.996 251.355 -271.535 180.328 -163.097 107.4C-54.6577 34.472 200.58 68.5057 288.843 139.383C377.105 210.26 227.352 266.148 303.036 406.09Z" stroke="#4A48E0" stroke-opacity="0.5" stroke-width="0.5"/>
<path d="M289.896 409.596C348.895 518.614 252.248 654.655 196.549 709.048C17.6486 890.159 -176.842 502.695 -10.7218 380.803C155.398 258.91 -269.887 189.704 -164.252 118.703C-58.6166 47.7026 190.045 80.8692 276.039 149.894C362.034 218.918 216.148 273.322 289.896 409.596Z" stroke="#4A48E0" stroke-opacity="0.5" stroke-width="0.5"/>
<path d="M277.126 413.714C334.65 519.813 240.516 652.16 186.258 705.071C11.9866 881.249 -177.653 504.166 -15.8175 385.607C146.018 267.048 -268.418 199.58 -165.505 130.523C-62.592 61.4671 179.724 93.8142 263.542 161.005C347.36 228.195 205.22 281.09 277.126 413.714Z" stroke="#4A48E0" stroke-opacity="0.5" stroke-width="0.5"/>
<path d="M264.021 417.226C319.922 520.376 228.422 649.053 175.685 700.498C6.29521 871.796 -177.992 505.198 -20.6927 389.92C136.606 274.643 -266.185 209.076 -166.158 141.93C-66.1304 74.7845 169.377 106.217 250.837 171.536C332.296 236.855 194.144 288.29 264.021 417.226Z" stroke="#4A48E0" stroke-opacity="0.5" stroke-width="0.5"/>
<path d="M250.831 420.945C305.168 521.233 216.216 646.348 164.948 696.369C0.278635 862.926 -178.849 506.496 -25.9353 394.407C126.979 282.318 -264.569 218.585 -167.33 153.297C-70.0913 88.0078 158.843 118.559 238.026 182.064C317.209 245.569 182.91 295.585 250.831 420.945Z" stroke="#4A48E0" stroke-opacity="0.5" stroke-width="0.5"/>
<path d="M237.727 424.457C290.44 521.795 204.123 643.241 154.375 691.797C-5.41258 853.473 -179.187 507.528 -30.8102 398.72C117.567 289.913 -262.336 228.081 -167.983 164.703C-73.6294 101.325 148.497 130.962 225.321 192.595C302.145 254.229 171.835 302.785 237.727 424.457Z" stroke="#4A48E0" stroke-opacity="0.5" stroke-width="0.5"/>
<path d="M224.54 428.179C275.689 522.655 191.92 640.539 143.641 687.671C-11.4263 844.606 -180.042 508.829 -36.05 403.21C107.942 297.592 -260.717 237.594 -169.152 176.073C-77.5876 114.552 137.965 143.308 212.513 203.127C287.061 262.947 160.604 310.084 224.54 428.179Z" stroke="#4A48E0" stroke-opacity="0.5" stroke-width="0.5"/>
<path d="M211.401 431.684C261.001 523.226 179.805 637.428 133.007 683.086C-17.305 835.115 -180.819 509.77 -41.2375 407.459C98.3444 305.147 -259.068 246.97 -170.307 187.376C-81.5465 127.783 127.429 155.671 199.71 213.638C271.99 271.605 149.4 317.257 211.401 431.684Z" stroke="#4A48E0" stroke-opacity="0.5" stroke-width="0.5"/>
<path d="M198.249 435.414C246.21 524.078 167.623 634.73 122.334 678.973C-23.1316 826.287 -181.236 511.163 -46.1651 412.014C88.9056 312.865 -256.865 256.604 -170.975 198.85C-85.0842 141.096 117.086 168.056 187 224.191C256.913 280.325 138.297 324.583 198.249 435.414Z" stroke="#4A48E0" stroke-opacity="0.5" stroke-width="0.5"/>
<path d="M185.109 438.919C231.522 524.648 155.508 631.619 111.7 674.388C-29.0105 816.795 -182.013 512.104 -51.3528 416.262C79.3075 320.421 -255.217 265.979 -172.13 210.153C-89.0433 154.327 106.551 180.42 174.196 234.701C241.841 288.983 127.093 331.756 185.109 438.919Z" stroke="#4A48E0" stroke-opacity="0.5" stroke-width="0.5"/>
<path d="M171.892 442.941C216.682 525.72 143.302 629.022 101.014 670.326C-34.8141 807.853 -182.463 513.645 -56.34 421.085C69.7834 328.525 -253.096 275.985 -172.895 222.07C-92.6936 168.154 96.0922 193.332 161.379 245.742C226.665 298.152 115.905 339.466 171.892 442.941Z" stroke="#4A48E0" stroke-opacity="0.5" stroke-width="0.5"/>
<path d="M158.752 446.446C201.993 526.291 131.188 625.911 90.3798 665.74C-40.6929 798.361 -183.24 514.586 -61.5275 425.334C60.1855 336.081 -251.447 285.361 -174.05 233.373C-96.6525 181.385 85.5566 205.696 148.575 256.253C211.594 306.81 104.701 346.64 158.752 446.446Z" stroke="#4A48E0" stroke-opacity="0.5" stroke-width="0.5"/>
<path d="M145.601 450.175C187.203 527.143 119.006 623.213 79.7074 661.627C-46.519 789.533 -183.656 515.979 -66.4547 429.888C50.747 343.798 -249.244 294.994 -174.717 244.846C-100.19 194.698 75.2142 218.081 135.866 266.805C196.517 315.53 93.5987 353.965 145.601 450.175Z" stroke="#4A48E0" stroke-opacity="0.5" stroke-width="0.5"/>
<path d="M132.461 453.68C172.514 527.713 106.891 620.102 69.0728 657.042C-52.3979 780.041 -184.434 516.92 -71.6424 434.137C41.1488 351.354 -247.596 304.37 -175.872 256.149C-104.149 207.929 64.6784 230.444 123.062 277.316C181.446 324.188 82.3946 361.139 132.461 453.68Z" stroke="#4A48E0" stroke-opacity="0.5" stroke-width="0.5"/>
<path d="M119.275 457.402C157.763 528.574 94.6881 617.4 58.3394 652.916C-58.4116 771.175 -185.289 518.221 -76.8821 438.627C31.5243 359.033 -245.977 313.883 -177.042 267.519C-108.107 221.156 54.1465 242.79 110.254 287.848C166.362 332.906 71.1637 368.437 119.275 457.402Z" stroke="#4A48E0" stroke-opacity="0.5" stroke-width="0.5"/>
<path d="M1270.74 190.818C1275.12 30.9134 1470.9 -58.7249 1568.24 -83.5561C1885.03 -170.468 1852.49 388.039 1588.19 417.026C1323.88 446.013 1754.6 797.848 1590.73 809.006C1426.86 820.164 1170.31 622.604 1118.71 489.967C1067.11 357.33 1265.27 390.698 1270.74 190.818Z" stroke="#4A48E0" stroke-opacity="0.5" stroke-width="0.5"/>
<path d="M1572.01 268.374C1574.38 184.149 1677.52 136.853 1728.79 123.733C1895.66 77.8222 1878.28 372.006 1739.08 387.385C1599.88 402.765 1826.55 587.897 1740.25 593.843C1653.95 599.789 1518.93 495.841 1491.82 426.002C1464.7 356.163 1569.04 373.655 1572.01 268.374Z" stroke="#4A48E0" stroke-opacity="0.5" stroke-width="0.5"/>
<path d="M1285.23 194.414C1289.42 38.1734 1480.68 -49.3013 1575.8 -73.5086C1885.32 -158.251 1853.85 387.45 1595.58 415.624C1337.31 443.797 1758.42 787.821 1598.29 798.63C1438.15 809.44 1187.33 616.257 1136.84 486.627C1086.34 356.998 1280 389.715 1285.23 194.414Z" stroke="#4A48E0" stroke-opacity="0.5" stroke-width="0.5"/>
<path d="M1299.63 198.052C1303.8 45.4087 1490.68 -40.1425 1583.6 -63.8378C1886.01 -146.776 1855 386.368 1602.69 414.016C1350.38 441.665 1761.58 777.561 1605.15 788.198C1448.72 798.835 1203.79 610.223 1154.53 483.605C1105.26 356.986 1294.43 388.856 1299.63 198.052Z" stroke="#4A48E0" stroke-opacity="0.5" stroke-width="0.5"/>
<path d="M1313.9 201.895C1317.93 52.8544 1500.39 -30.631 1591.12 -53.7436C1886.39 -134.649 1856.24 385.907 1609.88 412.839C1363.52 439.771 1765.13 767.845 1612.38 778.192C1459.63 788.539 1220.43 604.316 1172.29 480.672C1124.15 357.029 1308.87 388.195 1313.9 201.895Z" stroke="#4A48E0" stroke-opacity="0.5" stroke-width="0.5"/>
<path d="M1328.3 205.532C1332.31 60.0895 1510.39 -21.4725 1598.93 -44.0731C1887.07 -123.174 1857.39 384.825 1616.99 411.232C1376.59 437.639 1768.29 757.585 1619.24 767.759C1470.19 777.934 1236.89 598.282 1189.98 477.649C1143.07 357.016 1323.3 387.336 1328.3 205.532Z" stroke="#4A48E0" stroke-opacity="0.5" stroke-width="0.5"/>
<path d="M1342.57 209.37C1346.44 67.5306 1520.1 -11.9653 1606.44 -33.9833C1887.45 -111.051 1858.63 384.359 1624.18 410.05C1389.73 435.741 1771.83 747.865 1626.47 757.749C1481.11 767.633 1253.52 592.37 1207.74 474.712C1161.96 357.055 1337.74 386.67 1342.57 209.37Z" stroke="#4A48E0" stroke-opacity="0.5" stroke-width="0.5"/>
<path d="M1356.97 213.008C1360.82 74.7656 1530.1 -2.80693 1614.25 -24.313C1888.13 -99.5772 1859.78 383.277 1631.29 408.443C1402.8 433.608 1774.99 737.604 1633.33 747.316C1491.67 757.028 1269.98 586.336 1225.43 471.689C1180.88 357.043 1352.16 385.811 1356.97 213.008Z" stroke="#4A48E0" stroke-opacity="0.5" stroke-width="0.5"/>
<path d="M1371.24 216.85C1374.95 82.2109 1539.81 6.70431 1621.77 -14.2191C1888.51 -87.4499 1861.02 382.815 1638.48 407.265C1415.94 431.715 1778.53 727.888 1640.56 737.31C1502.58 746.731 1286.61 580.428 1243.19 468.757C1199.77 357.085 1366.6 385.149 1371.24 216.85Z" stroke="#4A48E0" stroke-opacity="0.5" stroke-width="0.5"/>
<path d="M1385.5 219.909C1389.01 88.8184 1549.49 15.4226 1629.29 -4.88895C1889 -75.9931 1862.58 381.869 1645.88 405.509C1429.19 429.15 1782.51 717.794 1648.16 726.865C1513.8 735.935 1303.35 573.851 1260.99 465.088C1218.62 356.325 1381.11 383.773 1385.5 219.909Z" stroke="#4A48E0" stroke-opacity="0.5" stroke-width="0.5"/>
<path d="M1399.74 223.726C1403.17 96.2929 1559.18 24.9182 1636.76 5.15999C1889.21 -64.0039 1863.46 381.084 1652.81 404.101C1442.17 427.119 1785.57 707.647 1654.97 716.488C1524.36 725.328 1319.83 567.803 1278.66 462.082C1237.5 356.362 1395.44 383.017 1399.74 223.726Z" stroke="#4A48E0" stroke-opacity="0.5" stroke-width="0.5"/>
<path d="M1414.17 227.39C1417.52 103.499 1569.2 34.093 1644.62 14.8761C1890.06 -52.3909 1864.97 380.326 1660.19 402.725C1455.4 425.124 1789.22 697.818 1662.25 706.426C1535.28 715.034 1336.45 561.91 1296.44 459.133C1256.43 356.356 1409.98 382.253 1414.17 227.39Z" stroke="#4A48E0" stroke-opacity="0.5" stroke-width="0.5"/>
<path d="M1428.41 231.206C1431.69 110.974 1578.89 43.5885 1652.08 24.9249C1890.28 -40.4019 1865.85 379.54 1667.12 401.317C1468.38 423.093 1792.28 687.671 1669.06 696.049C1545.84 704.427 1352.92 555.862 1314.11 456.127C1275.31 356.393 1424.31 381.497 1428.41 231.206Z" stroke="#4A48E0" stroke-opacity="0.5" stroke-width="0.5"/>
<path d="M1442.84 234.87C1446.03 118.18 1588.9 52.7629 1659.94 34.6407C1891.12 -28.7891 1867.36 378.782 1674.49 399.94C1481.61 421.098 1795.92 677.842 1676.33 685.988C1556.75 694.133 1369.54 549.968 1331.89 453.177C1294.24 356.386 1438.84 380.733 1442.84 234.87Z" stroke="#4A48E0" stroke-opacity="0.5" stroke-width="0.5"/>
<path d="M1457.11 238.708C1460.17 125.621 1598.61 62.2698 1667.46 44.7302C1891.49 -16.6662 1868.61 378.316 1681.68 398.758C1494.75 419.2 1799.46 668.121 1683.56 675.976C1567.66 683.831 1386.17 544.055 1349.65 450.24C1313.12 356.425 1453.28 380.067 1457.11 238.708Z" stroke="#4A48E0" stroke-opacity="0.5" stroke-width="0.5"/>
<path d="M1471.51 242.346C1474.55 132.856 1608.61 71.4284 1675.26 54.4008C1892.18 -5.19187 1869.75 377.234 1688.79 397.151C1507.82 417.068 1802.62 657.861 1690.42 665.544C1578.22 673.227 1402.63 538.022 1367.34 447.217C1332.05 356.412 1467.71 379.208 1471.51 242.346Z" stroke="#4A48E0" stroke-opacity="0.5" stroke-width="0.5"/>
<path d="M1485.78 246.184C1488.68 140.297 1618.32 80.9353 1682.78 64.4903C1892.56 6.93104 1871 376.768 1695.98 395.969C1520.96 415.17 1806.17 648.141 1697.65 655.533C1589.14 662.926 1419.26 532.109 1385.1 444.28C1350.93 356.451 1482.15 378.542 1485.78 246.184Z" stroke="#4A48E0" stroke-opacity="0.5" stroke-width="0.5"/>
<path d="M1500.4 249.58C1503.23 147.352 1628.4 90.0109 1690.63 74.1192C1893.16 18.5002 1872.26 375.563 1703.29 394.141C1534.32 412.719 1809.61 637.574 1704.85 644.736C1600.09 651.898 1436.12 525.641 1403.16 440.855C1370.2 356.068 1496.87 377.366 1500.4 249.58Z" stroke="#4A48E0" stroke-opacity="0.5" stroke-width="0.5"/>
<path d="M1514.67 253.422C1517.36 154.797 1638.11 99.5222 1698.14 84.2131C1893.53 30.6276 1873.5 375.102 1710.48 392.964C1547.46 410.826 1813.15 627.858 1712.07 634.729C1611 641.601 1452.75 519.733 1420.92 437.922C1389.08 356.111 1511.31 376.704 1514.67 253.422Z" stroke="#4A48E0" stroke-opacity="0.5" stroke-width="0.5"/>
<path d="M1529.07 257.056C1531.74 162.028 1648.1 108.676 1705.95 93.8794C1894.22 42.0976 1874.65 374.015 1717.59 391.352C1560.53 408.689 1816.31 617.594 1718.94 624.293C1621.56 630.992 1469.21 513.695 1438.61 434.895C1408.01 356.094 1525.73 375.841 1529.07 257.056Z" stroke="#4A48E0" stroke-opacity="0.5" stroke-width="0.5"/>
<path d="M1543.34 260.898C1545.87 169.473 1657.81 118.188 1713.47 103.973C1894.6 54.2249 1875.89 373.554 1724.78 390.175C1573.67 406.795 1819.85 607.877 1726.16 614.286C1632.47 620.695 1485.84 507.787 1456.37 431.962C1426.89 356.137 1540.17 375.18 1543.34 260.898Z" stroke="#4A48E0" stroke-opacity="0.5" stroke-width="0.5"/>
<path d="M1557.77 264.558C1560.22 176.675 1667.83 127.358 1721.33 113.685C1895.44 65.8332 1877.4 372.791 1732.15 388.793C1586.9 404.796 1823.5 598.044 1733.44 604.22C1643.39 610.397 1502.46 501.889 1474.14 429.007C1445.82 356.126 1554.71 374.411 1557.77 264.558Z" stroke="#4A48E0" stroke-opacity="0.5" stroke-width="0.5"/>
<defs>
<filter id="filter0_b_2353_10169" x="-200" y="-124" width="2128" height="1455" filterUnits="userSpaceOnUse" color-interpolation-filters="sRGB">
<feFlood flood-opacity="0" result="BackgroundImageFix"/>
<feGaussianBlur in="BackgroundImageFix" stdDeviation="100"/>
<feComposite in2="SourceAlpha" operator="in" result="effect1_backgroundBlur_2353_10169"/>
<feBlend mode="normal" in="SourceGraphic" in2="effect1_backgroundBlur_2353_10169" result="shape"/>
</filter>
</defs>
</svg>
