<svg width="80" height="88" viewBox="0 0 80 88" fill="none" xmlns="http://www.w3.org/2000/svg">
<path d="M73.3334 22.5505H6.66675V65.9308H73.3334V22.5505Z" fill="#4A48E0"/>
<path d="M40 56.2914C46.1365 56.2914 51.1111 50.8964 51.1111 44.2413C51.1111 37.5862 46.1365 32.1912 40 32.1912C33.8635 32.1912 28.8889 37.5862 28.8889 44.2413C28.8889 50.8964 33.8635 56.2914 40 56.2914Z" fill="white"/>
<path fill-rule="evenodd" clip-rule="evenodd" d="M73.3333 34.6006C67.1968 34.6006 62.2222 29.2056 62.2222 22.5505H73.3333V34.6006Z" fill="#0A0B0D"/>
<path fill-rule="evenodd" clip-rule="evenodd" d="M6.66675 34.6007V22.5505H17.7777C17.7777 29.2056 12.8032 34.6007 6.66675 34.6007Z" fill="#0A0B0D"/>
<path fill-rule="evenodd" clip-rule="evenodd" d="M17.7778 65.9326H6.66663V53.8826C6.6666 53.8826 6.66665 53.8826 6.66663 53.8826C12.8031 53.8826 17.7778 59.2775 17.7778 65.9326Z" fill="#0A0B0D"/>
<path fill-rule="evenodd" clip-rule="evenodd" d="M73.3333 53.8826V65.9328H62.2223C62.2223 59.2777 67.1968 53.8826 73.3333 53.8826Z" fill="#0A0B0D"/>
</svg>
