<svg width="80" height="88" viewBox="0 0 80 88" fill="none" xmlns="http://www.w3.org/2000/svg">
<path d="M59.9998 21.3474H8.88867V64.7277C8.88867 70.0518 12.8683 74.3678 17.7776 74.3678H48.7681C48.8083 74.368 48.8485 74.3681 48.8887 74.3681H71.1109V28.5778H59.9998V21.3474Z" fill="#4A48E0"/>
<path d="M8.88867 21.3431C8.88867 17.35 11.8734 14.113 15.5553 14.113H59.9998V28.5731H15.5553C11.8734 28.5731 8.88867 25.3361 8.88867 21.3431Z" fill="black"/>
<path d="M48.8889 43.0349H71.1111V59.905H48.8889V43.0349Z" fill="black"/>
<path d="M59.9998 55.0814C61.8408 55.0814 63.3332 53.4629 63.3332 51.4663C63.3332 49.4698 61.8408 47.8513 59.9998 47.8513C58.1589 47.8513 56.6665 49.4698 56.6665 51.4663C56.6665 53.4629 58.1589 55.0814 59.9998 55.0814Z" fill="white"/>
</svg>
