<svg width="80" height="88" viewBox="0 0 80 88" fill="none" xmlns="http://www.w3.org/2000/svg">
<path d="M20 77.8077L25.3836 60.9376H54.6199L61.1111 77.8077H20Z" fill="black"/>
<path d="M40.0001 66.9619C53.5004 66.9619 64.4446 55.0929 64.4446 40.4517C64.4446 25.8105 53.5004 13.9415 40.0001 13.9415C26.4998 13.9415 15.5557 25.8105 15.5557 40.4517C15.5557 55.0929 26.4998 66.9619 40.0001 66.9619Z" fill="#4A48E0"/>
<path d="M62.2223 9.12122H55.5557V16.3513H62.2223V9.12122Z" fill="black"/>
<path d="M71.111 18.7657H64.4443V25.9958H71.111V18.7657Z" fill="black"/>
<path d="M53.3332 24.7892H46.6665V32.0192H53.3332V24.7892Z" fill="white"/>
<path d="M44.4445 34.426H37.7778V41.656H44.4445V34.426Z" fill="white"/>
</svg>
