<svg width="24" height="20" viewBox="0 0 24 20" fill="none" xmlns="http://www.w3.org/2000/svg">
<path d="M24 2.286C23.118 2.67667 22.1694 2.93733 21.1687 3.06067C22.186 2.45667 22.9687 1.49333 23.336 0.355333C22.384 0.913333 21.3294 1.32333 20.2074 1.53933C19.3114 0.589333 18.0334 0 16.6174 0C13.8974 0 11.6927 2.18533 11.6927 4.88C11.6927 5.26133 11.7374 5.63267 11.8214 5.99333C7.72938 5.788 4.10005 3.84267 1.67205 0.890667C1.24538 1.612 1.00538 2.45667 1.00538 3.348C1.00538 5.042 1.87271 6.53333 3.19538 7.412C2.38805 7.38733 1.62805 7.16267 0.962713 6.80267C0.962713 6.81733 0.962713 6.83933 0.962713 6.86C0.962713 9.22733 2.66071 11.1987 4.91138 11.6473C4.50005 11.76 4.06538 11.8227 3.61738 11.8227C3.29938 11.8227 2.98938 11.7867 2.68938 11.7327C3.31605 13.6673 5.13405 15.0813 7.28805 15.1233C5.60271 16.43 3.48005 17.2127 1.17205 17.2127C0.77338 17.2127 0.38338 17.19 -0.00195312 17.1433C2.17871 18.524 4.76805 19.3333 7.54738 19.3333C16.604 19.3333 21.5587 11.896 21.5587 5.444C21.5587 5.23267 21.552 5.022 21.542 4.814C22.5087 4.13133 23.342 3.27 24 2.286Z" fill="white"/>
</svg>
